<svg width="195" height="30" viewBox="0 0 195 30" fill="none" xmlns="http://www.w3.org/2000/svg">
<path d="M24.6994 23.8532H20.082L22.9701 7.29996H27.5872L24.6994 23.8532Z" fill="#00579F"/>
<path d="M41.4388 7.70474C40.5281 7.36981 39.0835 7 37.2974 7C32.7376 7 29.5266 9.25394 29.5069 12.4764C29.469 14.8539 31.8058 16.1745 33.5536 16.9672C35.34 17.7773 35.9473 18.306 35.9473 19.028C35.9291 20.137 34.5038 20.6482 33.1744 20.6482C31.3309 20.6482 30.3431 20.3846 28.842 19.7677L28.234 19.5032L27.5879 23.219C28.6708 23.6764 30.6661 24.0822 32.7375 24.1C37.5824 24.1 40.7366 21.8809 40.774 18.4469C40.7924 16.5625 39.5585 15.1186 36.8982 13.9388C35.2832 13.1814 34.2942 12.6707 34.2942 11.8957C34.3131 11.1912 35.1307 10.4696 36.9537 10.4696C38.4548 10.4343 39.5577 10.7687 40.3932 11.1034L40.8109 11.2792L41.4388 7.70474Z" fill="#00579F"/>
<path d="M47.5755 17.989C47.9558 17.038 49.419 13.3575 49.419 13.3575C49.3998 13.3929 49.7985 12.389 50.0265 11.7727L50.3492 13.1991C50.3492 13.1991 51.2236 17.1614 51.4135 17.989C50.6918 17.989 48.4875 17.989 47.5755 17.989ZM53.2751 7.29996H49.7036C48.6022 7.29996 47.7654 7.59908 47.2902 8.67339L40.4316 23.853H45.2765C45.2765 23.853 46.0742 21.8099 46.2456 21.3699C46.7771 21.3699 51.4902 21.3699 52.174 21.3699C52.3065 21.951 52.7249 23.853 52.7249 23.853H57.0002L53.2751 7.29996Z" fill="#00579F"/>
<path d="M16.2261 7.29996L11.7042 18.5877L11.21 16.2984C10.374 13.6569 7.7521 10.7869 4.82617 9.35987L8.96812 23.8356H13.8509L21.1086 7.29996H16.2261Z" fill="#00579F"/>
<path d="M7.50494 7.29996H0.076001L0 7.63442C5.79504 9.00808 9.63298 12.3192 11.2098 16.2991L9.59485 8.69141C9.32898 7.63419 8.5119 7.33483 7.50494 7.29996Z" fill="#FAA61A"/>
<path d="M107.822 26.7944H94.6982V3.20865H107.822V26.7944Z" fill="#FF5F00"/>
<path d="M95.539 14.9999C95.539 10.2154 97.7791 5.95356 101.268 3.20704C98.7166 1.19865 95.497 -9.07525e-05 91.9981 -9.07525e-05C83.7147 -9.07525e-05 77 6.71553 77 14.9999C77 23.2843 83.7147 29.9999 91.9981 29.9999C95.497 29.9999 98.7166 28.8012 101.268 26.7928C97.7791 24.0463 95.539 19.7844 95.539 14.9999Z" fill="#EB001B"/>
<path d="M125.522 14.9999C125.522 23.2843 118.808 29.9999 110.524 29.9999C107.025 29.9999 103.806 28.8012 101.254 26.7928C104.743 24.0463 106.983 19.7844 106.983 14.9999C106.983 10.2154 104.743 5.95356 101.254 3.20704C103.806 1.19865 107.025 -9.07525e-05 110.524 -9.07525e-05C118.808 -9.07525e-05 125.522 6.71553 125.522 14.9999Z" fill="#F79E1B"/>
<path d="M88.2856 15.0948C88.2856 14.4396 88.715 13.9013 89.4166 13.9013C90.0869 13.9013 90.5395 14.4163 90.5395 15.0948C90.5395 15.7732 90.0869 16.2882 89.4166 16.2882C88.715 16.2882 88.2856 15.7499 88.2856 15.0948ZM91.3036 15.0948V13.2309H90.4931V13.6835C90.236 13.3479 89.8459 13.1372 89.3157 13.1372C88.2704 13.1372 87.451 13.9566 87.451 15.0948C87.451 16.2338 88.2704 17.0523 89.3157 17.0523C89.8459 17.0523 90.236 16.8416 90.4931 16.506V16.9586H91.3036V15.0948ZM118.693 15.0948C118.693 14.4396 119.123 13.9013 119.824 13.9013C120.496 13.9013 120.947 14.4163 120.947 15.0948C120.947 15.7732 120.496 16.2882 119.824 16.2882C119.123 16.2882 118.693 15.7499 118.693 15.0948ZM121.712 15.0948V11.734H120.901V13.6835C120.644 13.3479 120.254 13.1372 119.723 13.1372C118.678 13.1372 117.859 13.9566 117.859 15.0948C117.859 16.2338 118.678 17.0523 119.723 17.0523C120.254 17.0523 120.644 16.8416 120.901 16.506V16.9586H121.712V15.0948ZM101.365 13.8629C101.887 13.8629 102.222 14.1905 102.308 14.7672H100.374C100.46 14.2289 100.787 13.8629 101.365 13.8629ZM101.381 13.1372C100.288 13.1372 99.5239 13.9325 99.5239 15.0948C99.5239 16.2802 100.319 17.0523 101.435 17.0523C101.997 17.0523 102.511 16.9122 102.963 16.5301L102.566 15.9294C102.254 16.1784 101.855 16.3195 101.481 16.3195C100.959 16.3195 100.483 16.0775 100.367 15.4063H103.135C103.143 15.3054 103.151 15.2037 103.151 15.0948C103.143 13.9325 102.425 13.1372 101.381 13.1372ZM111.167 15.0948C111.167 14.4396 111.597 13.9013 112.298 13.9013C112.969 13.9013 113.421 14.4163 113.421 15.0948C113.421 15.7732 112.969 16.2882 112.298 16.2882C111.597 16.2882 111.167 15.7499 111.167 15.0948ZM114.185 15.0948V13.2309H113.375V13.6835C113.117 13.3479 112.728 13.1372 112.198 13.1372C111.152 13.1372 110.333 13.9566 110.333 15.0948C110.333 16.2338 111.152 17.0523 112.198 17.0523C112.728 17.0523 113.117 16.8416 113.375 16.506V16.9586H114.185V15.0948ZM106.59 15.0948C106.59 16.2257 107.377 17.0523 108.579 17.0523C109.14 17.0523 109.514 16.9273 109.92 16.6078L109.53 15.9526C109.226 16.1713 108.906 16.2882 108.555 16.2882C107.908 16.2802 107.432 15.8124 107.432 15.0948C107.432 14.3771 107.908 13.9093 108.555 13.9013C108.906 13.9013 109.226 14.0182 109.53 14.2369L109.92 13.5817C109.514 13.2622 109.14 13.1372 108.579 13.1372C107.377 13.1372 106.59 13.9638 106.59 15.0948ZM117.04 13.1372C116.572 13.1372 116.268 13.3559 116.057 13.6835V13.2309H115.254V16.9586H116.065V14.8689C116.065 14.2521 116.33 13.9093 116.861 13.9093C117.025 13.9093 117.196 13.9325 117.368 14.0031L117.618 13.239C117.438 13.1684 117.204 13.1372 117.04 13.1372ZM95.3124 13.5273C94.9224 13.2702 94.385 13.1372 93.7923 13.1372C92.8479 13.1372 92.24 13.5898 92.24 14.3307C92.24 14.9385 92.6926 15.3134 93.5263 15.4304L93.9092 15.4848C94.3538 15.5473 94.5635 15.6643 94.5635 15.8749C94.5635 16.1632 94.2672 16.3275 93.7137 16.3275C93.1523 16.3275 92.747 16.1481 92.4739 15.9374L92.0918 16.5685C92.5363 16.8961 93.0978 17.0523 93.7057 17.0523C94.7822 17.0523 95.4062 16.5453 95.4062 15.8356C95.4062 15.1804 94.9152 14.8377 94.1038 14.7207L93.7218 14.6654C93.371 14.619 93.0898 14.5494 93.0898 14.2994C93.0898 14.0263 93.3549 13.8629 93.7994 13.8629C94.2752 13.8629 94.7358 14.0423 94.9616 14.1825L95.3124 13.5273ZM105.771 13.1372C105.303 13.1372 104.998 13.3559 104.789 13.6835V13.2309H103.985V16.9586H104.796V14.8689C104.796 14.2521 105.061 13.9093 105.591 13.9093C105.755 13.9093 105.927 13.9325 106.098 14.0031L106.348 13.239C106.169 13.1684 105.935 13.1372 105.771 13.1372ZM98.8535 13.2309H97.528V12.1H96.7085V13.2309H95.9525V13.9718H96.7085V15.6723C96.7085 16.5373 97.0442 17.0523 98.0029 17.0523C98.3546 17.0523 98.7598 16.9434 99.0169 16.764L98.783 16.0695C98.5411 16.2097 98.276 16.2802 98.0653 16.2802C97.6601 16.2802 97.528 16.0302 97.528 15.6562V13.9718H98.8535V13.2309ZM86.7342 16.9586V14.619C86.7342 13.7379 86.1727 13.1452 85.2676 13.1372C84.7918 13.1292 84.3009 13.2773 83.9572 13.8004C83.7001 13.3871 83.2949 13.1372 82.7254 13.1372C82.3273 13.1372 81.9381 13.2541 81.6337 13.6906V13.2309H80.8223V16.9586H81.6408V14.8921C81.6408 14.245 81.9997 13.9013 82.554 13.9013C83.0922 13.9013 83.3645 14.2521 83.3645 14.8841V16.9586H84.1839V14.8921C84.1839 14.245 84.558 13.9013 85.0962 13.9013C85.6496 13.9013 85.9148 14.2521 85.9148 14.8841V16.9586H86.7342Z" fill="white"/>
<path d="M176.344 26.7951H163.22V3.20935H176.344V26.7951Z" fill="#6C6BBD"/>
<path d="M164.06 15C164.06 10.2155 166.301 5.95365 169.789 3.20713C167.238 1.19874 164.019 8.00246e-07 160.52 8.00246e-07C152.236 8.00246e-07 145.521 6.71562 145.521 15C145.521 23.2844 152.236 30 160.52 30C164.019 30 167.238 28.8013 169.789 26.7929C166.301 24.0463 164.06 19.7845 164.06 15Z" fill="#EB001B"/>
<path d="M194.043 15C194.043 23.2844 187.328 30 179.045 30C175.546 30 172.326 28.8013 169.774 26.7929C173.264 24.0463 175.504 19.7845 175.504 15C175.504 10.2155 173.264 5.95365 169.774 3.20713C172.326 1.19874 175.546 8.00246e-07 179.045 8.00246e-07C187.328 8.00246e-07 194.043 6.71562 194.043 15Z" fill="#0099DF"/>
<path d="M183.305 12.4359C183.52 12.4359 183.828 12.477 184.064 12.5697L183.736 13.5742C183.51 13.4815 183.285 13.451 183.069 13.451C182.372 13.451 182.024 13.9017 182.024 14.7114V17.4599H180.957V12.5591H182.013V13.1541C182.29 12.7234 182.69 12.4359 183.305 12.4359ZM179.364 13.5332H177.622V15.7477C177.622 16.2394 177.795 16.568 178.329 16.568C178.606 16.568 178.955 16.4753 179.272 16.291L179.579 17.2029C179.241 17.4388 178.708 17.5831 178.247 17.5831C176.985 17.5831 176.545 16.906 176.545 15.7676V13.5332H175.55V12.5591H176.545V11.0722H177.622V12.5591H179.364V13.5332ZM165.717 14.5788C165.831 13.8711 166.26 13.3888 167.02 13.3888C167.706 13.3888 168.147 13.8195 168.26 14.5788H165.717ZM169.368 15.0095C169.357 13.4815 168.414 12.4359 167.04 12.4359C165.604 12.4359 164.6 13.4815 164.6 15.0095C164.6 16.5668 165.645 17.5819 167.112 17.5819C167.85 17.5819 168.526 17.3977 169.121 16.8954L168.598 16.1056C168.188 16.4342 167.665 16.6184 167.173 16.6184C166.487 16.6184 165.861 16.3004 165.708 15.4191H169.347C169.357 15.2853 169.368 15.1527 169.368 15.0095ZM174.053 13.8101C173.756 13.6247 173.151 13.3888 172.526 13.3888C171.942 13.3888 171.593 13.6047 171.593 13.9639C171.593 14.2913 171.961 14.384 172.423 14.445L172.925 14.5166C173.992 14.6715 174.637 15.1222 174.637 15.9835C174.637 16.9165 173.817 17.5831 172.403 17.5831C171.602 17.5831 170.864 17.3777 170.28 16.947L170.782 16.1162C171.141 16.3931 171.675 16.629 172.413 16.629C173.141 16.629 173.531 16.4142 173.531 16.034C173.531 15.7582 173.254 15.6033 172.669 15.5223L172.167 15.4508C171.07 15.2958 170.475 14.8041 170.475 14.0049C170.475 13.0309 171.275 12.4359 172.515 12.4359C173.295 12.4359 174.002 12.6107 174.514 12.9487L174.053 13.8101ZM187.202 13.4487C186.983 13.4487 186.78 13.4874 186.591 13.5637C186.403 13.6411 186.24 13.7491 186.103 13.8876C185.966 14.0261 185.858 14.1927 185.779 14.3863C185.7 14.58 185.662 14.7936 185.662 15.0259C185.662 15.2595 185.7 15.4719 185.779 15.6655C185.858 15.8591 185.966 16.0258 186.103 16.1643C186.24 16.3028 186.403 16.4107 186.591 16.4882C186.78 16.5656 186.983 16.6032 187.202 16.6032C187.422 16.6032 187.626 16.5656 187.814 16.4882C188.003 16.4107 188.167 16.3028 188.304 16.1643C188.444 16.0258 188.552 15.8591 188.632 15.6655C188.71 15.4719 188.749 15.2595 188.749 15.0259C188.749 14.7936 188.71 14.58 188.632 14.3863C188.552 14.1927 188.444 14.0261 188.304 13.8876C188.167 13.7491 188.003 13.6411 187.814 13.5637C187.626 13.4874 187.422 13.4487 187.202 13.4487ZM187.202 12.4359C187.583 12.4359 187.935 12.5016 188.259 12.6342C188.583 12.7657 188.863 12.9476 189.099 13.1787C189.336 13.4099 189.52 13.6834 189.654 13.9979C189.788 14.3136 189.855 14.6563 189.855 15.0259C189.855 15.3956 189.788 15.7383 189.654 16.054C189.52 16.3685 189.336 16.6431 189.099 16.8743C188.863 17.1055 188.583 17.2862 188.259 17.4188C187.935 17.5502 187.583 17.616 187.202 17.616C186.822 17.616 186.47 17.5502 186.146 17.4188C185.822 17.2862 185.544 17.1055 185.31 16.8743C185.075 16.6431 184.891 16.3685 184.757 16.054C184.623 15.7383 184.556 15.3956 184.556 15.0259C184.556 14.6563 184.623 14.3136 184.757 13.9979C184.891 13.6834 185.075 13.4099 185.31 13.1787C185.544 12.9476 185.822 12.7657 186.146 12.6342C186.47 12.5016 186.822 12.4359 187.202 12.4359ZM159.488 15.0095C159.488 14.1481 160.052 13.4404 160.975 13.4404C161.856 13.4404 162.451 14.1176 162.451 15.0095C162.451 15.9014 161.856 16.5774 160.975 16.5774C160.052 16.5774 159.488 15.8709 159.488 15.0095ZM163.456 15.0095V12.5591H162.39V13.1541C162.051 12.7128 161.539 12.4359 160.842 12.4359C159.468 12.4359 158.392 13.512 158.392 15.0095C158.392 16.5058 159.468 17.5831 160.842 17.5831C161.539 17.5831 162.051 17.3061 162.39 16.8649V17.4599H163.456V15.0095ZM157.448 17.4599V14.384C157.448 13.2257 156.71 12.4464 155.521 12.4359C154.896 12.4253 154.249 12.6201 153.798 13.3078C153.46 12.7645 152.926 12.4359 152.178 12.4359C151.655 12.4359 151.143 12.5896 150.742 13.1635V12.5591H149.677V17.4599H150.753V14.7431C150.753 13.8923 151.225 13.4404 151.952 13.4404C152.66 13.4404 153.019 13.9017 153.019 14.7325V17.4599H154.095V14.7431C154.095 13.8923 154.588 13.4404 155.295 13.4404C156.023 13.4404 156.372 13.9017 156.372 14.7325V17.4599H157.448Z" fill="white"/>
</svg>
