<svg width="247" height="29" viewBox="0 0 247 29" fill="none" xmlns="http://www.w3.org/2000/svg">
<g style="mix-blend-mode:luminosity">
<path d="M105.793 24.7114H100.393L103.771 5.35083H109.171L105.793 24.7114Z" fill="#C7C7C7"/>
<path d="M125.37 5.82425C124.305 5.43252 122.616 5 120.527 5C115.193 5 111.438 7.63619 111.415 11.4051C111.371 14.1859 114.104 15.7304 116.148 16.6575C118.237 17.605 118.947 18.2234 118.947 19.0679C118.926 20.3649 117.259 20.9628 115.704 20.9628C113.548 20.9628 112.393 20.6545 110.637 19.9329L109.926 19.6236L109.17 23.9696C110.437 24.5045 112.771 24.9792 115.193 25C120.86 25 124.549 22.4046 124.593 18.3882C124.614 16.1842 123.171 14.4955 120.06 13.1155C118.171 12.2297 117.014 11.6324 117.014 10.726C117.036 9.902 117.992 9.05803 120.125 9.05803C121.88 9.0167 123.17 9.40788 124.147 9.79934L124.636 10.0049L125.37 5.82425Z" fill="#C7C7C7"/>
<path d="M132.548 17.8526C132.993 16.7404 134.704 12.4357 134.704 12.4357C134.682 12.477 135.148 11.3029 135.415 10.5821L135.792 12.2504C135.792 12.2504 136.815 16.8846 137.037 17.8526C136.193 17.8526 133.615 17.8526 132.548 17.8526ZM139.214 5.35083H135.037C133.749 5.35083 132.77 5.70068 132.214 6.95718L124.193 24.7111H129.859C129.859 24.7111 130.792 22.3215 130.993 21.8069C131.614 21.8069 137.127 21.8069 137.926 21.8069C138.081 22.4866 138.571 24.7111 138.571 24.7111H143.571L139.214 5.35083Z" fill="#C7C7C7"/>
<path d="M95.8821 5.35083L90.5933 18.5529L90.0153 15.8753C89.0375 12.7858 85.971 9.42912 82.5488 7.76008L87.3932 24.6908H93.1041L101.593 5.35083H95.8821Z" fill="#C7C7C7"/>
<path d="M85.6821 5.35083H76.9933L76.9044 5.74202C83.6822 7.34864 88.1711 11.2213 90.0153 15.8761L88.1265 6.97826C87.8155 5.74174 86.8599 5.39162 85.6821 5.35083Z" fill="#E7E7E7"/>
</g>
<g style="mix-blend-mode:luminosity">
<path d="M29.7949 25.9016H17.1085V3.10205H29.7949V25.9016Z" fill="#FF5F00"/>
<path d="M17.921 14.5C17.921 9.875 20.0865 5.75519 23.4587 3.10022C20.9927 1.15878 17.8805 -3.72353e-06 14.4982 -3.72353e-06C6.49085 -3.72353e-06 0 6.49176 0 14.5C0 22.5082 6.49085 29 14.4982 29C17.8805 29 20.9927 27.8412 23.4587 25.8998C20.0865 23.2448 17.921 19.125 17.921 14.5Z" fill="#222843"/>
<path d="M46.9047 14.5C46.9047 22.5082 40.4138 29 32.4065 29C29.0242 29 25.912 27.8412 23.4451 25.8998C26.8182 23.2448 28.9836 19.125 28.9836 14.5C28.9836 9.875 26.8182 5.75519 23.4451 3.10022C25.912 1.15878 29.0242 -3.72353e-06 32.4065 -3.72353e-06C40.4138 -3.72353e-06 46.9047 6.49176 46.9047 14.5Z" fill="#F79E1B"/>
<path d="M10.9101 14.5913C10.9101 13.958 11.3252 13.4377 12.0034 13.4377C12.6514 13.4377 13.0889 13.9355 13.0889 14.5913C13.0889 15.2471 12.6514 15.745 12.0034 15.745C11.3252 15.745 10.9101 15.2247 10.9101 14.5913ZM13.8275 14.5913V12.7896H13.044V13.2271C12.7955 12.9027 12.4184 12.699 11.9059 12.699C10.8955 12.699 10.1033 13.4912 10.1033 14.5913C10.1033 15.6924 10.8955 16.4836 11.9059 16.4836C12.4184 16.4836 12.7955 16.28 13.044 15.9556V16.393H13.8275V14.5913ZM40.3042 14.5913C40.3042 13.958 40.7193 13.4377 41.3975 13.4377C42.0464 13.4377 42.483 13.9355 42.483 14.5913C42.483 15.2471 42.0464 15.745 41.3975 15.745C40.7193 15.745 40.3042 15.2247 40.3042 14.5913ZM43.2225 14.5913V11.3426H42.4381V13.2271C42.1896 12.9027 41.8125 12.699 41.3 12.699C40.2896 12.699 39.4974 13.4912 39.4974 14.5913C39.4974 15.6924 40.2896 16.4836 41.3 16.4836C41.8125 16.4836 42.1896 16.28 42.4381 15.9556V16.393H43.2225V14.5913ZM23.5531 13.4006C24.0579 13.4006 24.3823 13.7172 24.4652 14.2747H22.5953C22.679 13.7543 22.9948 13.4006 23.5531 13.4006ZM23.5686 12.699C22.5124 12.699 21.7738 13.4679 21.7738 14.5913C21.7738 15.7372 22.5426 16.4836 23.6212 16.4836C24.164 16.4836 24.661 16.3482 25.0985 15.9789L24.7145 15.3981C24.4125 15.6389 24.0277 15.7752 23.6661 15.7752C23.1613 15.7752 22.7014 15.5414 22.5884 14.8925H25.2642C25.2719 14.795 25.2797 14.6966 25.2797 14.5913C25.2719 13.4679 24.5782 12.699 23.5686 12.699ZM33.0293 14.5913C33.0293 13.958 33.4443 13.4377 34.1225 13.4377C34.7706 13.4377 35.208 13.9355 35.208 14.5913C35.208 15.2471 34.7706 15.745 34.1225 15.745C33.4443 15.745 33.0293 15.2247 33.0293 14.5913ZM35.9467 14.5913V12.7896H35.1632V13.2271C34.9138 12.9027 34.5376 12.699 34.025 12.699C33.0146 12.699 32.2225 13.4912 32.2225 14.5913C32.2225 15.6924 33.0146 16.4836 34.025 16.4836C34.5376 16.4836 34.9138 16.28 35.1632 15.9556V16.393H35.9467V14.5913ZM28.6044 14.5913C28.6044 15.6846 29.3655 16.4836 30.5269 16.4836C31.0697 16.4836 31.4312 16.3628 31.823 16.0539L31.4467 15.4206C31.1525 15.632 30.8436 15.745 30.5036 15.745C29.878 15.7372 29.4181 15.2851 29.4181 14.5913C29.4181 13.8976 29.878 13.4454 30.5036 13.4377C30.8436 13.4377 31.1525 13.5507 31.4467 13.7621L31.823 13.1288C31.4312 12.8198 31.0697 12.699 30.5269 12.699C29.3655 12.699 28.6044 13.4981 28.6044 14.5913ZM38.7062 12.699C38.254 12.699 37.9598 12.9104 37.7561 13.2271V12.7896H36.9795V16.393H37.7639V14.373C37.7639 13.7768 38.0202 13.4454 38.5327 13.4454C38.6915 13.4454 38.8572 13.4679 39.0228 13.536L39.2645 12.7974C39.091 12.7292 38.8649 12.699 38.7062 12.699ZM17.7027 13.0761C17.3257 12.8276 16.8062 12.699 16.2332 12.699C15.3203 12.699 14.7327 13.1365 14.7327 13.8527C14.7327 14.4403 15.1702 14.8027 15.9761 14.9158L16.3463 14.9684C16.776 15.0288 16.9788 15.1419 16.9788 15.3455C16.9788 15.6242 16.6923 15.783 16.1573 15.783C15.6146 15.783 15.2228 15.6095 14.9588 15.4059L14.5895 16.016C15.0192 16.3326 15.5619 16.4836 16.1495 16.4836C17.1902 16.4836 17.7933 15.9935 17.7933 15.3075C17.7933 14.6742 17.3188 14.3428 16.5344 14.2298L16.1651 14.1763C15.826 14.1314 15.5542 14.0641 15.5542 13.8225C15.5542 13.5585 15.8104 13.4006 16.2401 13.4006C16.7001 13.4006 17.1453 13.574 17.3636 13.7095L17.7027 13.0761ZM27.8123 12.699C27.3601 12.699 27.0659 12.9104 26.8631 13.2271V12.7896H26.0865V16.393H26.87V14.373C26.87 13.7768 27.1263 13.4454 27.6388 13.4454C27.7976 13.4454 27.9633 13.4679 28.129 13.536L28.3706 12.7974C28.1971 12.7292 27.971 12.699 27.8123 12.699ZM21.1258 12.7896H19.8444V11.6964H19.0523V12.7896H18.3214V13.5058H19.0523V15.1496C19.0523 15.9858 19.3767 16.4836 20.3035 16.4836C20.6434 16.4836 21.0352 16.3784 21.2837 16.2049L21.0576 15.5336C20.8238 15.6691 20.5675 15.7372 20.3639 15.7372C19.9721 15.7372 19.8444 15.4956 19.8444 15.1341V13.5058H21.1258V12.7896ZM9.41043 16.393V14.1314C9.41043 13.2798 8.86768 12.7068 7.99271 12.699C7.5328 12.6913 7.05821 12.8345 6.726 13.3402C6.47749 12.9406 6.08574 12.699 5.53522 12.699C5.15038 12.699 4.77416 12.8121 4.47992 13.234V12.7896H3.69556V16.393H4.48682V14.3955C4.48682 13.7699 4.8337 13.4377 5.36955 13.4377C5.88987 13.4377 6.15305 13.7768 6.15305 14.3877V16.393H6.94517V14.3955C6.94517 13.7699 7.30672 13.4377 7.82704 13.4377C8.36203 13.4377 8.6183 13.7768 8.6183 14.3877V16.393H9.41043Z" fill="white"/>
</g>
<g style="mix-blend-mode:luminosity" opacity="0.7">
<g style="mix-blend-mode:luminosity" opacity="0.7">
<path fill-rule="evenodd" clip-rule="evenodd" d="M180.351 5.00341C181.006 4.99949 182.953 4.82416 183.777 7.60718C184.333 9.48186 185.217 12.5527 186.432 16.8196H186.926C188.228 12.3211 189.123 9.25029 189.609 7.60718C190.443 4.79517 192.526 5.00347 193.359 5.00347L199.787 5.00348V25H193.235V13.2157H192.796L189.144 25H184.214L180.562 13.207H180.122V25H173.571V5.00348L180.351 5.00341ZM209.195 5.00348V16.7965H209.718L214.161 7.09918C215.023 5.16939 216.861 5.00348 216.861 5.00348H223.201V25H216.513V13.207H215.99L211.635 22.9043C210.772 24.8254 208.847 25 208.847 25H202.507V5.00348H209.195ZM246.321 14.506C245.388 17.1499 242.458 19.0433 239.214 19.0433H232.199V25H225.839V14.506H246.321Z" fill="#D5D5D5"/>
</g>
<g style="mix-blend-mode:luminosity" opacity="0.7">
<path fill-rule="evenodd" clip-rule="evenodd" d="M239.52 5.00342H225.505C225.839 9.45532 229.673 13.2664 233.641 13.2664H246.763C247.52 9.56639 244.913 5.00342 239.52 5.00342Z" fill="#BBBBBB"/>
</g>
</g>
</svg>
