<svg width="24" height="23" viewBox="0 0 24 23" fill="none" xmlns="http://www.w3.org/2000/svg">
<path d="M9 22C9.55228 22 10 21.5523 10 21C10 20.4477 9.55228 20 9 20C8.44772 20 8 20.4477 8 21C8 21.5523 8.44772 22 9 22Z" stroke="#E94F1D" stroke-width="2" stroke-linecap="round" stroke-linejoin="round"/>
<path d="M9 22C9.55228 22 10 21.5523 10 21C10 20.4477 9.55228 20 9 20C8.44772 20 8 20.4477 8 21C8 21.5523 8.44772 22 9 22Z" stroke="#FC5824" stroke-width="2" stroke-linecap="round" stroke-linejoin="round"/>
<path d="M9 22C9.55228 22 10 21.5523 10 21C10 20.4477 9.55228 20 9 20C8.44772 20 8 20.4477 8 21C8 21.5523 8.44772 22 9 22Z" stroke="#E7351D" stroke-width="2" stroke-linecap="round" stroke-linejoin="round"/>
<path d="M21 22C21.5523 22 22 21.5523 22 21C22 20.4477 21.5523 20 21 20C20.4477 20 20 20.4477 20 21C20 21.5523 20.4477 22 21 22Z" stroke="#E94F1D" stroke-width="2" stroke-linecap="round" stroke-linejoin="round"/>
<path d="M21 22C21.5523 22 22 21.5523 22 21C22 20.4477 21.5523 20 21 20C20.4477 20 20 20.4477 20 21C20 21.5523 20.4477 22 21 22Z" stroke="#FC5824" stroke-width="2" stroke-linecap="round" stroke-linejoin="round"/>
<path d="M21 22C21.5523 22 22 21.5523 22 21C22 20.4477 21.5523 20 21 20C20.4477 20 20 20.4477 20 21C20 21.5523 20.4477 22 21 22Z" stroke="#E7351D" stroke-width="2" stroke-linecap="round" stroke-linejoin="round"/>
<path d="M1 1H5L7.68 14.39C7.77144 14.8504 8.02191 15.264 8.38755 15.5583C8.75318 15.8526 9.2107 16.009 9.68 16L20.4 14C20.4 14 21.1455 13.8545 21.5 13.5C22 13 22.4 12.39 22.4 12.39L23 5H5.8006" stroke="#E94F1D" stroke-width="2" stroke-linecap="round" stroke-linejoin="round"/>
<path d="M1 1H5L7.68 14.39C7.77144 14.8504 8.02191 15.264 8.38755 15.5583C8.75318 15.8526 9.2107 16.009 9.68 16L20.4 14C20.4 14 21.1455 13.8545 21.5 13.5C22 13 22.4 12.39 22.4 12.39L23 5H5.8006" stroke="#FC5824" stroke-width="2" stroke-linecap="round" stroke-linejoin="round"/>
<path d="M1 1H5L7.68 14.39C7.77144 14.8504 8.02191 15.264 8.38755 15.5583C8.75318 15.8526 9.2107 16.009 9.68 16L20.4 14C20.4 14 21.1455 13.8545 21.5 13.5C22 13 22.4 12.39 22.4 12.39L23 5H5.8006" stroke="#E7351D" stroke-width="2" stroke-linecap="round" stroke-linejoin="round"/>
</svg>
