<svg width="24" height="24" viewBox="0 0 24 24" fill="none" xmlns="http://www.w3.org/2000/svg">
<circle cx="12" cy="12" r="11" fill="#64AE19"/>
<circle cx="12" cy="12" r="11" fill="#3CA318"/>
<circle cx="12" cy="12" r="11" fill="#57BC34"/>
<circle cx="12" cy="12" r="11" stroke="white" stroke-width="2"/>
<path d="M12.0427 16.156C12.9787 16.156 13.7587 15.892 14.3827 15.364C15.0187 14.836 15.3307 14.14 15.3307 13.276C15.3307 12.544 15.0907 11.944 14.5987 11.476C14.1067 11.008 13.5307 10.732 12.8467 10.66L14.9947 8.596V7.6H9.84669V8.752H13.2427L10.9867 10.936V11.836C11.3227 11.704 11.6827 11.644 12.0547 11.644C13.2427 11.644 13.9987 12.316 13.9987 13.276C13.9987 13.792 13.7947 14.212 13.3987 14.524C13.0027 14.824 12.5347 14.98 11.9707 14.98C11.0347 14.98 10.2187 14.728 9.53469 14.236V15.52C10.2067 15.94 11.0467 16.156 12.0427 16.156Z" fill="white"/>
</svg>
